<svg width="20" height="20" viewBox="0 0 20 20" fill="none" xmlns="http://www.w3.org/2000/svg">
<path d="M10.0001 3.33335C8.23197 3.33335 6.53628 4.03573 5.28604 5.28598C4.03579 6.53622 3.33341 8.23191 3.33341 10H5.83341C6.27544 10 6.69937 10.1756 7.01193 10.4882C7.32449 10.8007 7.50008 11.2247 7.50008 11.6667V15.8334C7.50008 16.2754 7.32449 16.6993 7.01193 17.0119C6.69937 17.3244 6.27544 17.5 5.83341 17.5H3.33341C2.89139 17.5 2.46746 17.3244 2.1549 17.0119C1.84234 16.6993 1.66675 16.2754 1.66675 15.8334V10C1.66675 5.39752 5.39758 1.66669 10.0001 1.66669C14.6026 1.66669 18.3334 5.39752 18.3334 10V15.8334C18.3334 16.2754 18.1578 16.6993 17.8453 17.0119C17.5327 17.3244 17.1088 17.5 16.6667 17.5H14.1667C13.7247 17.5 13.3008 17.3244 12.9882 17.0119C12.6757 16.6993 12.5001 16.2754 12.5001 15.8334V11.6667C12.5001 11.2247 12.6757 10.8007 12.9882 10.4882C13.3008 10.1756 13.7247 10 14.1667 10H16.6667C16.6667 8.23191 15.9644 6.53622 14.7141 5.28598C13.4639 4.03573 11.7682 3.33335 10.0001 3.33335ZM3.33341 11.6667V15.8334H5.83341V11.6667H3.33341ZM14.1667 11.6667V15.8334H16.6667V11.6667H14.1667Z" fill="#CFCFCF"/>
</svg>
