<svg width="24" height="24" viewBox="0 0 24 24" fill="none" xmlns="http://www.w3.org/2000/svg">
<g clip-path="url(#clip0_2011_122)">
<path fill-rule="evenodd" clip-rule="evenodd" d="M2.25 11.7998C2.25 6.4148 6.615 2.0498 12 2.0498C17.385 2.0498 21.75 6.4148 21.75 11.7998C21.75 17.1848 17.385 21.5498 12 21.5498C6.615 21.5498 2.25 17.1848 2.25 11.7998ZM16.274 10.8168C16.4492 10.9143 16.5951 11.0568 16.6967 11.2297C16.7983 11.4025 16.8519 11.5993 16.8519 11.7998C16.8519 12.0003 16.7983 12.1971 16.6967 12.3699C16.5951 12.5428 16.4492 12.6853 16.274 12.7828L10.671 15.8958C10.4998 15.9908 10.3067 16.0395 10.1109 16.0371C9.91513 16.0346 9.72336 15.9811 9.55458 15.8818C9.3858 15.7826 9.24586 15.6409 9.14859 15.471C9.05133 15.301 9.00011 15.1086 9 14.9128V8.6868C9 7.8298 9.921 7.2868 10.671 7.7038L16.274 10.8168Z" fill="#C79500"/>
</g>
<defs>
<clipPath id="clip0_2011_122">
<rect width="24" height="24" fill="white"/>
</clipPath>
</defs>
</svg>
