<svg width="20" height="20" viewBox="0 0 20 20" fill="none" xmlns="http://www.w3.org/2000/svg">
<path d="M15.9283 4.6967C16.6248 5.39314 17.1772 6.21993 17.5542 7.12988C17.9311 8.03983 18.1251 9.01511 18.1251 10C18.1251 10.9849 17.9311 11.9602 17.5542 12.8702C17.1772 13.7801 16.6248 14.6069 15.9283 15.3034M13.7192 6.90669C14.5395 7.72715 15.0003 8.83983 15.0003 10C15.0003 11.1602 14.5395 12.2729 13.7192 13.0934M5.625 6.87503L9.55834 2.9417C9.64574 2.8544 9.75706 2.79496 9.87822 2.77089C9.99939 2.74682 10.125 2.7592 10.2391 2.80646C10.3532 2.85372 10.4508 2.93374 10.5195 3.03642C10.5882 3.1391 10.6249 3.25983 10.625 3.38336V16.6167C10.6249 16.7402 10.5882 16.861 10.5195 16.9636C10.4508 17.0663 10.3532 17.1463 10.2391 17.1936C10.125 17.2409 9.99939 17.2532 9.87822 17.2292C9.75706 17.2051 9.64574 17.1457 9.55834 17.0584L5.625 13.125H3.75834C3.025 13.125 2.33834 12.7025 2.14334 11.9967C1.96459 11.3462 1.87434 10.6746 1.875 10C1.875 9.30836 1.96834 8.63919 2.14334 8.00336C2.33834 7.29669 3.025 6.87503 3.75834 6.87503H5.625Z" stroke="#CFCFCF" stroke-width="1.25" stroke-linecap="round" stroke-linejoin="round"/>
</svg>
